HIERARCHY
ROOT hip
{
	OFFSET 0.000000 0.000000 0.000000 
	CHANNELS 6 Xposition Yposition Zposition Xrotation Zrotation Yrotation
	JOINT abdomen
	{
		OFFSET 0.000000 3.402643 0.000000 
		CHANNELS 3 Xrotation Zrotation Yrotation
		JOINT chest
		{
			OFFSET 0.000000 8.438565 -0.680529 
			CHANNELS 3 Xrotation Zrotation Yrotation
			JOINT neck
			{
				OFFSET 0.000000 10.207942 -0.272212 
				CHANNELS 3 Xrotation Zrotation Yrotation
				JOINT head
				{
					OFFSET 0.000000 3.130431 0.000000 
					CHANNELS 3 Xrotation Zrotation Yrotation
					End Site
					{
						OFFSET 0.000000 3.130435 0.000000 
					}
				}
			}
			JOINT lCollar
			{
				OFFSET 3.470700 6.669187 -0.816635 
				CHANNELS 3 Yrotation Zrotation Xrotation
				JOINT lShldr
				{
					OFFSET 3.198488 0.000000 0.000000 
					CHANNELS 3 Zrotation Yrotation Xrotation
					JOINT lForeArm
					{
						OFFSET 10.139888 0.000000 0.000000 
						CHANNELS 3 Yrotation Zrotation Xrotation
						JOINT lHand
						{
							OFFSET 8.370511 0.000000 0.000000 
							CHANNELS 3 Zrotation Yrotation Xrotation
							End Site
							{
								OFFSET 4.083176 0.000000 0.000000 
							}
						}
					}
				}
			}
			JOINT rCollar
			{
				OFFSET -3.470700 6.669187 -0.816635 
				CHANNELS 3 Yrotation Zrotation Xrotation
				JOINT rShldr
				{
					OFFSET -3.198488 0.000000 0.000000 
					CHANNELS 3 Zrotation Yrotation Xrotation
					JOINT rForeArm
					{
						OFFSET -10.139888 0.000000 0.000000 
						CHANNELS 3 Yrotation Zrotation Xrotation
						JOINT rHand
						{
							OFFSET -8.370511 0.000000 0.000000 
							CHANNELS 3 Zrotation Yrotation Xrotation
							End Site
							{
								OFFSET -4.083176 0.000000 0.000000 
							}
						}
					}
				}
			}
		}
	}
	JOINT lThigh
	{
		OFFSET 5.308129 -1.633274 1.361059 
		CHANNELS 3 Xrotation Zrotation Yrotation
		JOINT lShin
		{
			OFFSET -2.041588 -20.007561 0.000000 
			CHANNELS 3 Xrotation Zrotation Yrotation
			JOINT lFoot
			{
				OFFSET 0.000000 -19.190928 -1.224953 
				CHANNELS 3 Xrotation Yrotation Zrotation
				End Site
				{
					OFFSET 0.000000 -2.449906 4.627600 
				}
			}
		}
	}
	JOINT rThigh
	{
		OFFSET -5.308129 -1.633274 1.361059 
		CHANNELS 3 Xrotation Zrotation Yrotation
		JOINT rShin
		{
			OFFSET 2.041588 -20.007561 0.000000 
			CHANNELS 3 Xrotation Zrotation Yrotation
			JOINT rFoot
			{
				OFFSET 0.000000 -19.190928 -1.224953 
				CHANNELS 3 Xrotation Yrotation Zrotation
				End Site
				{
					OFFSET 0.000000 -2.449906 4.627600 
				}
			}
		}
	}
}
MOTION
Frames: 8
Frame Time: 0.033333
-10.525974 45.865219 -54.019802 141.298843 -167.529297 -1.466953 53.653221 -11.652014 0.144023 -26.113283 4.072266 -3.554688 51.063168 8.107644 2.471410 -96.220703 -9.287109 0.935924 2.000000 -2.000000 0.000000 -84.628906 26.562500 -18.149929 -68.846550 -0.885332 -2.653962 3.080892 55.634708 -4.793272 -2.000000 2.000000 0.000000 1.728516 54.931641 -106.163887 72.839981 0.200624 -2.654721 53.697685 -58.995232 -80.131897 -96.284943 -2.530467 20.303677 65.710892 -2.457312 -4.748977 2.804311 8.300704 3.149065 -39.239861 -14.058784 -6.167925 63.787048 2.099554 4.283227 -5.491166 0.843252 10.498105 
-10.570119 45.857334 -53.980923 141.328125 -167.675781 -1.437632 53.659279 -11.447862 0.130634 -26.123049 3.896484 -3.740234 51.063168 8.107644 2.471410 -96.035156 -9.208984 1.132812 2.000000 -2.000000 0.000000 -84.677734 26.396484 -18.359373 -68.846550 -0.885332 -2.653962 3.221845 55.820610 -4.531179 -2.000000 2.000000 0.000000 2.197265 55.068356 -105.664063 72.839981 0.200624 -2.654721 53.889652 -59.201374 -80.213051 -96.470078 -2.676947 19.990164 65.762909 -2.661465 -4.686978 2.786140 8.538063 3.110518 -39.438404 -14.080105 -5.967299 63.961689 2.060494 4.321520 -5.593235 1.088198 10.268616 
-10.594650 45.849457 -53.941010 141.328125 -167.675781 -1.437632 53.659279 -11.447862 0.130634 -26.123049 3.896484 -3.740234 51.063168 8.107644 2.471410 -95.986328 -9.091796 1.181641 2.000000 -2.000000 0.000000 -84.677734 26.396484 -18.359373 -68.846550 -0.885332 -2.653962 3.265272 55.947678 -4.728034 -2.000000 2.000000 0.000000 1.923828 55.302734 -105.683594 72.822639 0.049160 -2.741743 54.079983 -59.319122 -80.498177 -96.471954 -2.842349 19.636944 65.744392 -2.680794 -4.658745 2.362406 8.524542 2.997296 -39.427544 -14.059891 -6.166394 63.961689 2.060494 4.321520 -5.395951 0.902035 10.508779 
-10.608399 45.825829 -53.891708 141.328125 -167.675781 -1.437632 53.659279 -11.447862 0.130634 -26.123049 3.896484 -3.740234 51.063168 8.107644 2.471410 -95.781242 -9.003905 1.209409 2.000000 -2.000000 0.000000 -84.638672 26.542969 -18.349609 -68.846550 -0.885332 -2.653962 3.284629 55.762184 -4.709134 -2.000000 2.000000 0.000000 1.777344 55.556641 -106.074219 73.011177 0.200748 -2.488482 54.796200 -59.267807 -80.723671 -96.464989 -3.027086 19.850395 65.764702 -2.508016 -4.891037 2.251969 9.184067 2.973403 -39.650356 -13.922351 -5.826385 64.139221 2.060355 4.286634 -5.443749 1.053642 10.597457 
-10.623153 45.802185 -53.835701 141.503906 -167.666016 -1.476695 53.659279 -11.447862 0.130634 -26.123049 3.896484 -3.740234 51.063168 8.107644 2.471410 -95.742180 -8.886717 1.258257 2.000000 -2.000000 0.000000 -85.195313 26.650391 -18.662111 -68.853973 -1.056290 -2.565789 2.941925 55.136330 -4.694082 -2.000000 2.000000 0.000000 1.923828 55.585941 -105.919678 73.011177 0.200748 -2.488482 54.980820 -59.552261 -80.651169 -96.281471 -3.214519 19.869928 65.524055 -2.309835 -4.748978 1.686368 9.433075 2.845162 -39.622696 -14.089088 -5.972289 64.313324 2.031183 4.340299 -5.407264 0.905226 10.542482 
-10.638348 45.770672 -53.780155 141.503906 -167.666016 -1.476695 53.680439 -11.559502 -0.017478 -26.123049 3.896484 -3.740234 51.063168 8.107644 2.471410 -95.546875 -8.808594 1.287567 2.000000 -2.000000 0.000000 -85.244141 26.816404 -18.857418 -68.678185 -1.066039 -2.565222 3.092538 55.273403 -4.793601 -2.000000 2.000000 0.000000 2.666016 55.439449 -104.777107 73.174477 0.030227 -2.752616 54.024353 -59.551830 -79.986191 -96.306015 -3.281662 19.137802 65.590981 -2.846807 -4.574360 1.238257 9.629775 2.657509 -39.622696 -14.089088 -5.972287 64.665070 1.992184 4.353071 -5.222444 1.087472 10.464080 
-10.654697 45.715523 -53.731205 141.679688 -167.607422 -1.515768 53.653221 -11.652014 0.144023 -26.123049 3.896484 -3.740234 51.063168 8.107644 2.471410 -95.341797 -8.730468 1.152344 2.000000 -2.000000 0.000000 -85.195313 26.660156 -18.662111 -68.670753 -0.895081 -2.653394 3.631936 55.743645 -4.382447 -2.000000 2.000000 0.000000 3.613281 55.400391 -104.355469 73.174477 0.030227 -2.752616 53.550297 -59.556927 -79.561684 -96.493317 -3.603203 18.869570 65.589348 -2.840816 -4.618817 0.770862 10.054606 2.755913 -39.801342 -14.090490 -5.952104 64.841316 1.982361 4.350797 -5.209649 1.095861 10.445913 
-10.681024 45.660381 -53.661896 141.855469 -167.587891 -1.730615 53.682919 -11.745401 0.002716 -26.123049 3.896484 -3.740234 51.063168 8.107644 2.471410 -95.302734 -8.603516 1.191406 2.000000 -2.000000 0.000000 -84.931641 26.152344 -18.706633 -68.501869 -1.064907 -2.545731 3.953430 56.457592 -4.025852 -2.000000 2.000000 0.000000 4.716797 55.166016 -104.005653 73.174477 0.030227 -2.752616 53.499977 -59.201019 -79.757889 -96.326149 -3.749905 18.527699 65.619568 -3.007007 -4.598540 0.249875 10.436468 2.251839 -39.801342 -14.090492 -5.952103 65.193802 1.962724 4.346206 -5.360202 1.318193 10.336106 
